<?xml version="1.0" encoding="UTF-8"?>
<svg width="24px" height="24px" viewBox="0 0 24 24" version="1.1" xmlns="http://www.w3.org/2000/svg" xmlns:xlink="http://www.w3.org/1999/xlink">
    <title>删除</title>
    <g id="删除" stroke="none" stroke-width="1" fill="none" fill-rule="evenodd">
        <path d="M9,3 L15,3 L15,4 L9,4 L9,3 Z M4,5 L20,5 L20,6 L19,6 L19,19.5 C19,20.3284271 18.3284271,21 17.5,21 L6.5,21 C5.67157288,21 5,20.3284271 5,19.5 L5,6 L4,6 L4,5 Z M6,6 L6,19.5 C6,19.7761424 6.22385763,20 6.5,20 L17.5,20 C17.7761424,20 18,19.7761424 18,19.5 L18,6 L6,6 Z M10,8 L11,8 L11,18 L10,18 L10,8 Z M13,8 L14,8 L14,18 L13,18 L13,8 Z" id="形状" fill="#333333" fill-rule="nonzero"></path>
    </g>
</svg> 