<?xml version="1.0" encoding="UTF-8"?>
<svg width="24px" height="24px" viewBox="0 0 24 24" version="1.1" xmlns="http://www.w3.org/2000/svg" xmlns:xlink="http://www.w3.org/1999/xlink">
    <title>静音图标</title>
    <g id="mute" stroke="none" stroke-width="1" fill="none" fill-rule="evenodd">
        <path d="M10.8,4.9 C10.8,4.24 10.25,3.69 9.6,3.69 C9.27,3.69 8.98,3.83 8.76,4.04 L6,6.8 L3.6,6.8 C2.94,6.8 2.4,7.34 2.4,8 L2.4,12 C2.4,12.66 2.94,13.2 3.6,13.2 L6,13.2 L8.76,15.96 C8.98,16.17 9.27,16.31 9.6,16.31 C10.25,16.31 10.8,15.76 10.8,15.1 L10.8,4.9 Z M16.5,12 C16.5,10.23 15.48,8.71 14,7.97 L14,16.02 C15.48,15.29 16.5,13.77 16.5,12 Z M14,3.23 L14,5.29 C16.89,6.15 19,8.83 19,12 C19,15.17 16.89,17.85 14,18.71 L14,20.77 C18.01,19.86 21,16.28 21,12 C21,7.72 18.01,4.14 14,3.23 Z" id="Shape" fill="#666666" fill-rule="nonzero"></path>
        <path d="M2,2 L22,22" id="Line" stroke="#FF0000" stroke-width="2" stroke-linecap="round"></path>
    </g>
</svg> 